<svg width="200" height="280" viewBox="0 0 200 280" xmlns="http://www.w3.org/2000/svg">
  <rect width="200" height="280" fill="#f1f5f9" stroke="#3b82f6" stroke-width="1"/>
  <rect x="20" y="20" width="160" height="30" fill="#f1f5f9" stroke="#3b82f6" stroke-width="1" rx="4"/>
  <rect x="16" y="20" width="4" height="30" fill="#3b82f6"/>
  <text x="30" y="40" font-family="monospace" font-size="14" fill="#1e40af">代码模板</text>
  <rect x="20" y="70" width="160" height="20" fill="#e2e8f0" rx="2"/>
  <text x="30" y="85" font-family="monospace" font-size="10" fill="#475569">function example() {</text>
  <rect x="30" y="100" width="140" height="15" fill="#3b82f6" opacity="0.2" rx="2"/>
  <text x="40" y="112" font-family="monospace" font-size="9" fill="#475569">  return "Hello World";</text>
  <rect x="30" y="125" width="100" height="15" fill="#3b82f6" opacity="0.2" rx="2"/>
  <text x="30" y="150" font-family="monospace" font-size="10" fill="#475569">}</text>
  <rect x="20" y="170" width="160" height="30" fill="#f1f5f9" stroke="#3b82f6" stroke-width="1" rx="4"/>
  <rect x="16" y="170" width="4" height="30" fill="#3b82f6"/>
  <text x="30" y="190" font-family="monospace" font-size="12" fill="#1e40af">console.log();</text>
  <rect x="20" y="220" width="80" height="15" fill="#3b82f6" opacity="0.2" rx="2"/>
  <rect x="110" y="220" width="70" height="15" fill="#3b82f6" opacity="0.2" rx="2"/>
  <rect x="20" y="245" width="60" height="15" fill="#3b82f6" opacity="0.2" rx="2"/>
</svg>