<svg width="200" height="280" viewBox="0 0 200 280" xmlns="http://www.w3.org/2000/svg">
  <rect width="200" height="280" fill="#fdf2f8" stroke="#ec4899" stroke-width="1"/>
  <text x="100" y="40" text-anchor="middle" font-family="cursive" font-size="18" fill="#be185d" text-decoration="underline" text-decoration-style="wavy">手写模板</text>
  <path d="M 30 70 Q 50 65 70 70 T 110 75 Q 130 80 150 75" stroke="#ec4899" stroke-width="2" fill="none" opacity="0.7"/>
  <path d="M 40 100 Q 60 95 80 100 T 120 105 Q 140 110 160 105" stroke="#ec4899" stroke-width="2" fill="none" opacity="0.5"/>
  <path d="M 35 130 Q 55 125 75 130 T 115 135 Q 135 140 155 135" stroke="#ec4899" stroke-width="2" fill="none" opacity="0.5"/>
  <path d="M 45 160 Q 65 155 85 160 T 125 165 Q 145 170 165 165" stroke="#ec4899" stroke-width="2" fill="none" opacity="0.5"/>
  <text x="100" y="200" text-anchor="middle" font-family="cursive" font-size="14" fill="#be185d">手写风格内容</text>
  <path d="M 30 220 Q 50 215 70 220 T 110 225 Q 130 230 150 225" stroke="#ec4899" stroke-width="2" fill="none" opacity="0.7"/>
  <path d="M 40 245 Q 60 240 80 245 T 120 250 Q 140 255 160 250" stroke="#ec4899" stroke-width="2" fill="none" opacity="0.5"/>
  <circle cx="170" cy="50" r="3" fill="#ec4899" opacity="0.6"/>
  <circle cx="25" cy="180" r="2" fill="#ec4899" opacity="0.6"/>
  <circle cx="175" cy="200" r="2" fill="#ec4899" opacity="0.6"/>
</svg>