<svg width="200" height="200" viewBox="0 0 200 200" fill="none" xmlns="http://www.w3.org/2000/svg">
  <!-- 黄色背景 -->
  <rect width="200" height="200" fill="#fef3c7"/>

  <!-- 顶部导航栏 -->
  <rect x="20" y="20" width="160" height="24" rx="4" fill="#fcd34d"/>

  <!-- 导航栏文字 -->
  <rect x="30" y="28" width="40" height="8" rx="2" fill="#713f12"/>

  <!-- 右侧按钮 -->
  <circle cx="160" cy="32" r="3" fill="#713f12"/>
  <circle cx="170" cy="32" r="3" fill="#713f12"/>

  <!-- 日期 -->
  <rect x="30" y="55" width="60" height="6" rx="2" fill="#d97706"/>

  <!-- 标题 -->
  <rect x="30" y="70" width="80" height="8" rx="2" fill="#713f12"/>

  <!-- 内容行 1 -->
  <circle cx="35" cy="95" r="2" fill="#d97706"/>
  <rect x="45" y="90" width="100" height="6" rx="2" fill="#a16207"/>

  <!-- 内容行 2 -->
  <circle cx="35" cy="105" r="2" fill="#d97706"/>
  <rect x="45" y="100" width="90" height="6" rx="2" fill="#a16207"/>

  <!-- 内容行 3 -->
  <circle cx="35" cy="115" r="2" fill="#d97706"/>
  <rect x="45" y="110" width="80" height="6" rx="2" fill="#a16207"/>

  <!-- 内容行 4 -->
  <circle cx="35" cy="125" r="2" fill="#d97706"/>
  <rect x="45" y="120" width="95" height="6" rx="2" fill="#a16207"/>

  <!-- 底部装饰线 -->
  <rect x="20" y="150" width="160" height="2" rx="1" fill="#fcd34d"/>
</svg>